<?xml version="1.0" encoding="UTF-8" standalone="no"?>
<svg width="100px" height="100px" viewBox="0 0 100 100" version="1.1" xmlns="http://www.w3.org/2000/svg" xmlns:xlink="http://www.w3.org/1999/xlink" xmlns:sketch="http://www.bohemiancoding.com/sketch/ns">
    <title>Slice 1</title>
    <description>Created with Sketch (http://www.bohemiancoding.com/sketch)</description>
    <defs></defs>
    <g id="Page 1" stroke="none" stroke-width="1" fill="none" fill-rule="evenodd">
        <path d="M0,0 L0,100 L100,100 L100,0 L0,0 Z M0,0" id="Rectangle 1" fill="#D8D8D8"></path>
        <g id="Layer_1" transform="translate(25.000000, 23.000000)" fill="#FFFFFF">
            <path d="M46,1.03764903 C28.147741,0.447234108 13.5253123,6.99638775 13.5253123,6.99638775 L13.5146545,40.2318717 C11.6969758,39.5142579 9.4865591,39.3441294 7.24150471,39.8868447 C2.40128895,41.0565446 -0.768324978,45.0913999 0.162096327,48.9004771 C1.09251763,52.7095544 5.77020275,54.8496759 10.6098856,53.680506 C15.1735328,52.5775855 18.2504244,48.9269769 17.807595,45.3214179 L17.807595,45.3214179 L17.807595,20.4884816 C17.807595,20.4884816 28.147741,16.8929926 41.5599826,15.9914703 L41.5599826,34.4612814 C39.7620207,33.7765273 37.5937021,33.6212386 35.3896801,34.153884 C30.5494643,35.323054 27.3798504,39.3579093 28.3102717,43.1675165 C29.2401601,46.9765937 33.9178452,49.1161853 38.758061,47.9470153 C42.9843905,46.9257141 45.9365864,43.7192417 45.9984013,40.3871604 L46,40.3892804 L46,1.03764903 L46,1.03764903 Z M46,1.03764903" id="Shape"></path>
        </g>
    </g>
</svg>