<?xml version="1.0" encoding="UTF-8" standalone="no"?>
<svg width="604px" height="85px" viewBox="0 0 604 85" version="1.1" xmlns="http://www.w3.org/2000/svg" xmlns:xlink="http://www.w3.org/1999/xlink" xmlns:sketch="http://www.bohemiancoding.com/sketch/ns">
    <title>Slice 1</title>
    <description>Created with Sketch (http://www.bohemiancoding.com/sketch)</description>
    <defs></defs>
    <g id="Page 1" stroke="none" stroke-width="1" fill="none" fill-rule="evenodd">
        <path d="M132.46875,24.609375 L132.46875,78 L115.6875,78 L115.6875,24.609375 L98.859375,24.609375 L98.859375,9.65625 L149.296875,9.65625 L149.296875,24.609375 Z M191.640625,78 L179.546875,52.546875 L173.875,52.546875 L173.875,78 L157.046875,78 L157.046875,9.65625 L184.140625,9.65625 C189.0469,9.65625 193.249983,10.6796773 196.75,12.7265625 C200.250018,14.7734477 202.914053,17.4687333 204.742188,20.8125 C206.570322,24.1562667 207.484375,27.7656056 207.484375,31.640625 C207.484375,35.9218964 206.398448,39.5859223 204.226562,42.6328125 C202.054677,45.6797027 199.42189,47.9687423 196.328125,49.5 L211.09375,78 Z M260.875,78 L257.6875,67.828125 L236.640625,67.828125 L233.3125,78 L215.734375,78 L240.578125,9.65625 L253.5625,9.65625 L278.40625,78 Z M314.875,56.296875 L331.9375,56.296875 C331.343747,59.9218931 330.273445,63.1640482 328.726562,66.0234375 C327.17968,68.8828268 325.257824,71.2343658 322.960938,73.078125 C320.664051,74.9218842 318.078139,76.2968705 315.203125,77.203125 C312.328111,78.1093795 309.265641,78.5625 306.015625,78.5625 C298.421837,78.5625 292.093775,76.0000256 287.03125,70.875 C284.031235,67.874985 282.125004,64.4687691 281.3125,60.65625 C280.499996,56.8437309 280.09375,52.0000294 280.09375,46.125 L280.09375,43.828125 L280.09375,41.53125 C280.09375,35.6562206 280.499996,30.8047066 281.3125,26.9765625 C282.125004,23.1484184 284.031235,19.73439 287.03125,16.734375 C289.593763,14.1718622 292.406235,12.2578188 295.46875,10.9921875 C298.531265,9.72655617 302.046855,9.09375 306.015625,9.09375 C309.421892,9.09375 312.546861,9.55468289 315.390625,10.4765625 C318.234389,11.3984421 320.781239,12.7734284 323.03125,14.6015625 C325.281261,16.4296966 327.17968,18.7577984 328.726562,21.5859375 C330.273445,24.4140766 331.343747,27.6718566 331.9375,31.359375 L314.875,31.359375 C314.281247,29.1406139 313.320319,27.3671941 311.992188,26.0390625 C310.664056,24.7109309 308.703138,24.046875 306.109375,24.046875 C304.671868,24.046875 303.382818,24.3124973 302.242188,24.84375 C301.101557,25.3750027 300.187503,26.0624958 299.5,26.90625 C298.906247,27.6562538 298.429689,28.5546823 298.070312,29.6015625 C297.710936,30.6484427 297.429689,32.2421768 297.226562,34.3828125 C297.023436,36.5234482 296.921875,39.6718542 296.921875,43.828125 C296.921875,49.3594027 297.124998,53.2421763 297.53125,55.4765625 C297.937502,57.7109487 298.593745,59.4531187 299.5,60.703125 C301.000007,62.6406347 303.20311,63.609375 306.109375,63.609375 C308.640638,63.609375 310.585931,62.9453191 311.945312,61.6171875 C313.304694,60.2890559 314.281247,58.5156361 314.875,56.296875 Z M373.359375,37.3125 L397.453125,78 L377.90625,78 L362.15625,49.96875 L356.390625,56.578125 L356.390625,78 L339.75,78 L339.75,9.65625 L356.390625,9.65625 L356.390625,33.84375 L376.171875,9.65625 L396.703125,9.65625 Z M449.59375,78 L446.40625,67.828125 L425.359375,67.828125 L422.03125,78 L404.453125,78 L429.296875,9.65625 L442.28125,9.65625 L467.125,78 Z M503.59375,56.296875 L520.65625,56.296875 C520.062497,59.9218931 518.992195,63.1640482 517.445312,66.0234375 C515.89843,68.8828268 513.976574,71.2343658 511.679688,73.078125 C509.382801,74.9218842 506.796889,76.2968705 503.921875,77.203125 C501.046861,78.1093795 497.984391,78.5625 494.734375,78.5625 C487.140587,78.5625 480.812525,76.0000256 475.75,70.875 C472.749985,67.874985 470.843754,64.4687691 470.03125,60.65625 C469.218746,56.8437309 468.8125,52.0000294 468.8125,46.125 L468.8125,43.828125 L468.8125,41.53125 C468.8125,35.6562206 469.218746,30.8047066 470.03125,26.9765625 C470.843754,23.1484184 472.749985,19.73439 475.75,16.734375 C478.312513,14.1718622 481.124985,12.2578188 484.1875,10.9921875 C487.250015,9.72655617 490.765605,9.09375 494.734375,9.09375 C498.140642,9.09375 501.265611,9.55468289 504.109375,10.4765625 C506.953139,11.3984421 509.499989,12.7734284 511.75,14.6015625 C514.000011,16.4296966 515.89843,18.7577984 517.445312,21.5859375 C518.992195,24.4140766 520.062497,27.6718566 520.65625,31.359375 L503.59375,31.359375 C502.999997,29.1406139 502.039069,27.3671941 500.710938,26.0390625 C499.382806,24.7109309 497.421888,24.046875 494.828125,24.046875 C493.390618,24.046875 492.101568,24.3124973 490.960938,24.84375 C489.820307,25.3750027 488.906253,26.0624958 488.21875,26.90625 C487.624997,27.6562538 487.148439,28.5546823 486.789062,29.6015625 C486.429686,30.6484427 486.148439,32.2421768 485.945312,34.3828125 C485.742186,36.5234482 485.640625,39.6718542 485.640625,43.828125 C485.640625,49.3594027 485.843748,53.2421763 486.25,55.4765625 C486.656252,57.7109487 487.312495,59.4531187 488.21875,60.703125 C489.718758,62.6406347 491.92186,63.609375 494.828125,63.609375 C497.359388,63.609375 499.304681,62.9453191 500.664062,61.6171875 C502.023444,60.2890559 502.999997,58.5156361 503.59375,56.296875 Z M546.296875,78 L529.46875,78 L529.46875,9.65625 L546.296875,9.65625 Z M603.544,43.788 C603.544,48.3864101 602.685643,52.7548341 600.968903,56.8934032 C599.252163,61.0319723 596.738404,64.7566286 593.427548,68.0674839 C590.361942,71.0717785 586.913186,73.4169324 583.081177,75.1030161 C579.249169,76.7890998 575.217957,77.7547515 570.987419,78 L568.964129,78 L555.168968,78 L555.168968,9.576 L568.964129,9.576 C573.562539,9.576 577.961619,10.4190292 582.1615,12.1051129 C586.361381,13.7911966 590.116693,16.258973 593.427548,19.5085161 C596.738404,22.8193714 599.252163,26.5440277 600.968903,30.6825968 C602.685643,34.8211659 603.544,39.1895899 603.544,43.788 Z M603.544,43.788" id="TRACKACID" fill="#FFFFFF"></path>
        <g id="Icon" transform="translate(42.281250, 43.119141) scale(-1, 1) translate(-42.281250, -43.119141) translate(-0.218750, 0.619141)" fill="#FFFFFF">
            <path d="M42.109375,44.4253906 C43.3884752,44.4253906 44.4253906,43.3884752 44.4253906,42.109375 C44.4253906,40.8302748 43.3884752,39.7933594 42.109375,39.7933594 C40.8302748,39.7933594 39.7933594,40.8302748 39.7933594,42.109375 C39.7933594,43.3884752 40.8302748,44.4253906 42.109375,44.4253906 Z M42.109375,44.4253906" id="MIddle Dot"></path>
            <path d="M61.8292123,42.2024326 C61.729325,52.8839291 53.0394294,61.5120795 42.3343201,61.5120795 C42.2592374,61.5120795 42.1842539,61.5116551 42.109375,61.5108085 L42.109375,66.5530656 C42.1842732,66.5537382 42.2592573,66.5540752 42.3343201,66.5540752 C55.8240632,66.5540752 66.7713611,55.6685799 66.8713869,42.2024326 Z M42.109375,0 C65.3655406,0 84.21875,18.8532094 84.21875,42.109375 C84.21875,65.3655406 65.3655406,84.21875 42.109375,84.21875 C18.8532094,84.21875 0,65.3655406 0,42.109375 C0,18.8532094 18.8532094,0 42.109375,0 Z M42.109375,17.4795692 C28.6611262,17.600339 17.7965622,28.53955 17.7965622,42.0163174 L22.8385579,42.0163174 C22.8385579,31.3241873 31.4457988,22.6423873 42.109375,22.5218262 Z M73.2890969,42.3808594 C73.1432901,59.4765875 59.2395108,73.2902542 42.109375,73.2902542 C41.9998667,73.2902542 41.8904902,73.2896896 41.78125,73.2885634 L41.78125,77.900871 C41.8905033,77.9018521 41.9998817,77.9023438 42.109375,77.9023438 C61.786721,77.9023438 77.7554291,62.0237864 77.9013357,42.3808594 Z M41.78125,6.31787903 C22.1644312,6.49404475 6.31640625,22.4509565 6.31640625,42.109375 L10.9284958,42.109375 C10.9284958,24.9981584 24.7116666,11.1061757 41.78125,10.9301866 Z M42.109375,54.7421875 C49.0860562,54.7421875 54.7421875,49.0860562 54.7421875,42.109375 C54.7421875,35.1326938 49.0860562,29.4765625 42.109375,29.4765625 C35.1326938,29.4765625 29.4765625,35.1326938 29.4765625,42.109375 C29.4765625,49.0860562 35.1326938,54.7421875 42.109375,54.7421875 Z M42.109375,54.7421875" id="Base"></path>
        </g>
    </g>
</svg>